<svg width="361" height="256" viewBox="0 0 361 256" fill="none" xmlns="http://www.w3.org/2000/svg">
<g clip-path="url(#clip0_240_10861)">
<path d="M1440.75 0H0.75V256H1440.75V0Z" fill="#546DF5"/>
<path d="M0.75 229.46C21.1486 235.244 45.0469 240.002 83.7442 240.002C184.737 240.002 184.737 208.002 285.83 208.002C386.823 208.002 386.823 240.002 487.816 240.002C588.809 240.002 588.809 208.002 689.902 208.002C790.895 208.002 790.895 240.002 891.988 240.002C992.981 240.002 992.981 208.002 1094.07 208.002C1195.07 208.002 1195.07 240.002 1296.16 240.002C1373.25 240.002 1391.55 221.343 1440.75 212.573" stroke="white" stroke-width="1.0091" stroke-miterlimit="10"/>
<path d="M0.75 37.4577C21.1486 43.242 45.0469 48 83.7442 48C184.737 48 184.737 16 285.83 16C386.823 16 386.823 48 487.816 48C588.809 48 588.809 16 689.902 16C790.895 16 790.895 48 891.988 48C992.981 48 992.981 16 1094.07 16C1195.07 16 1195.07 48 1296.16 48C1373.25 48 1391.55 29.3411 1440.75 20.5714" stroke="white" stroke-width="1.0091" stroke-miterlimit="10"/>
<path d="M0.75 75.8581C21.1486 81.6424 45.0469 86.4004 83.7442 86.4004C184.737 86.4004 184.737 54.4004 285.83 54.4004C386.823 54.4004 386.823 86.4004 487.816 86.4004C588.809 86.4004 588.809 54.4004 689.902 54.4004C790.895 54.4004 790.895 86.4004 891.988 86.4004C992.981 86.4004 992.981 54.4004 1094.07 54.4004C1195.07 54.4004 1195.07 86.4004 1296.16 86.4004C1373.25 86.4004 1391.55 67.7415 1440.75 58.9718" stroke="white" stroke-width="1.0091" stroke-miterlimit="10"/>
<path d="M0.75 114.259C21.1486 120.043 45.0469 124.801 83.7442 124.801C184.737 124.801 184.737 92.8008 285.83 92.8008C386.823 92.8008 386.823 124.801 487.816 124.801C588.809 124.801 588.809 92.8008 689.902 92.8008C790.895 92.8008 790.895 124.801 891.988 124.801C992.981 124.801 992.981 92.8008 1094.07 92.8008C1195.07 92.8008 1195.07 124.801 1296.16 124.801C1373.25 124.801 1391.55 106.142 1440.75 97.3722" stroke="white" stroke-width="1.0091" stroke-miterlimit="10"/>
<path d="M0.75 152.659C21.1486 158.443 45.0469 163.201 83.7442 163.201C184.737 163.201 184.737 131.201 285.83 131.201C386.823 131.201 386.823 163.201 487.816 163.201C588.809 163.201 588.809 131.201 689.902 131.201C790.895 131.201 790.895 163.201 891.988 163.201C992.981 163.201 992.981 131.201 1094.07 131.201C1195.07 131.201 1195.07 163.201 1296.16 163.201C1373.25 163.201 1391.55 144.542 1440.75 135.773" stroke="white" stroke-width="1.0091" stroke-miterlimit="10"/>
<path d="M0.75 191.059C21.1486 196.844 45.0469 201.602 83.7442 201.602C184.737 201.602 184.737 169.602 285.83 169.602C386.823 169.602 386.823 201.602 487.816 201.602C588.809 201.602 588.809 169.602 689.902 169.602C790.895 169.602 790.895 201.602 891.988 201.602C992.981 201.602 992.981 169.602 1094.07 169.602C1195.07 169.602 1195.07 201.602 1296.16 201.602C1373.25 201.602 1391.55 182.943 1440.75 174.173" stroke="white" stroke-width="1.0091" stroke-miterlimit="10"/>
<g clip-path="url(#clip1_240_10861)">
<path d="M327.347 227.2C328.083 226.929 328.703 226.657 329.168 226.386C328.587 225.301 327.541 223.595 325.681 222.122C323.937 220.766 322.078 220.029 320.45 219.68C321.535 219.719 322.775 219.758 324.131 219.797C324.247 219.797 324.402 219.797 324.519 219.797C325.294 219.797 325.952 219.797 326.456 219.797C326.572 216.928 326.727 214.099 326.843 211.23C326.301 211.192 325.487 211.114 324.519 211.192C323.046 211.308 321.264 211.695 319.482 212.781C317.312 214.099 314.6 216.734 315.22 218.246C315.452 218.789 316.111 219.138 317.196 219.37C316.692 219.37 316.266 219.409 316.034 219.409C314.058 219.564 312.353 220.145 310.919 220.843C314.406 213.75 317.932 204.796 319.133 195.687C320.877 182.702 308.982 162.275 300.264 149.367C295.421 142.196 291.547 137.312 291.547 137.312H183.991C174.383 137.312 166.634 145.104 166.634 154.678V195.648V235.34H170.741H175.041H175.971C176.165 235.34 176.359 235.34 176.552 235.301C176.165 236.658 175.971 238.131 175.971 239.604C175.971 248.635 183.294 255.961 192.322 255.961C201.349 255.961 208.672 248.635 208.672 239.604C208.672 238.092 208.478 236.658 208.091 235.262C208.401 235.301 208.672 235.34 208.982 235.34H209.95H214.212H253.422H253.809H298.095C298.753 235.34 299.451 235.262 300.071 235.107C299.877 236.037 299.761 236.774 299.683 237.317C299.954 237.278 300.303 237.239 300.652 237.2C300.536 238.014 300.458 238.828 300.458 239.642C300.458 248.674 307.781 256 316.808 256C325.836 256 333.159 248.674 333.159 239.642C333.081 234.681 330.834 230.223 327.347 227.2ZM292.903 225.998H254.507V216.269H273.104C274.422 216.269 275.507 215.184 275.507 213.866V211.657C275.507 210.339 274.422 209.253 273.104 209.253H248.734C248.579 209.253 248.424 209.253 248.308 209.292V202.625C248.308 202.199 247.959 201.85 247.533 201.85H244.433C244.007 201.85 243.658 202.199 243.658 202.625V227.898C243.658 228.324 243.31 228.673 242.883 228.673H219.947C219.52 228.673 219.172 228.324 219.172 227.898V203.439C219.172 199.098 215.646 195.609 211.345 195.609H212.198V153.864C212.198 151.615 214.019 149.794 216.266 149.794H291.508C291.508 149.794 305.108 173.903 302.008 194.137C300.032 206.734 295.809 218.75 292.903 225.998Z" stroke="black" stroke-width="3" stroke-miterlimit="10"/>
<path d="M192.283 256C201.313 256 208.633 248.676 208.633 239.642C208.633 230.609 201.313 223.285 192.283 223.285C183.253 223.285 175.933 230.609 175.933 239.642C175.933 248.676 183.253 256 192.283 256Z" fill="#36343A"/>
<path d="M192.283 249.759C197.868 249.759 202.395 245.229 202.395 239.642C202.395 234.055 197.868 229.525 192.283 229.525C186.698 229.525 182.17 234.055 182.17 239.642C182.17 245.229 186.698 249.759 192.283 249.759Z" fill="#4E4C51"/>
<path d="M316.731 256C325.761 256 333.081 248.676 333.081 239.642C333.081 230.609 325.761 223.285 316.731 223.285C307.701 223.285 300.38 230.609 300.38 239.642C300.38 248.676 307.701 256 316.731 256Z" fill="#36343A"/>
<path d="M316.731 249.759C322.316 249.759 326.843 245.229 326.843 239.642C326.843 234.055 322.316 229.525 316.731 229.525C311.146 229.525 306.619 234.055 306.619 239.642C306.619 245.229 311.146 249.759 316.731 249.759Z" fill="#4E4C51"/>
<path d="M293.794 225.998H253.345V234.177H293.794V225.998Z" fill="#E8BD07"/>
<path d="M273.104 216.308H248.734C247.416 216.308 246.332 215.222 246.332 213.905V211.695C246.332 210.377 247.416 209.292 248.734 209.292H273.104C274.422 209.292 275.506 210.377 275.506 211.695V213.905C275.506 215.222 274.46 216.308 273.104 216.308Z" fill="#36343A"/>
<path d="M299.606 237.317C300.42 237.239 301.698 237.084 303.093 236.541C306.58 235.224 307.006 233.285 310.106 231.076C314.174 228.208 318.823 227.781 321.381 227.588C322.233 227.51 323.899 228.053 326.03 227.588C327.386 227.316 328.432 226.812 329.129 226.425C328.548 225.339 327.502 223.634 325.642 222.161C321.69 219.021 317.157 219.331 315.918 219.448C310.881 219.874 307.665 222.781 306.193 224.099C300.962 228.867 299.877 235.146 299.606 237.317Z" fill="#E8BD07"/>
<path d="M326.843 211.23C326.727 214.098 326.572 216.928 326.456 219.796C325.952 219.796 325.255 219.796 324.519 219.796C324.402 219.796 324.247 219.796 324.131 219.796C319.056 219.68 315.762 219.603 315.181 218.246C314.561 216.773 317.312 214.098 319.443 212.781C321.225 211.695 323.046 211.308 324.48 211.191C325.487 211.114 326.301 211.191 326.843 211.23Z" fill="#FCCD01"/>
<path d="M326.843 211.23C326.727 214.098 326.572 216.928 326.456 219.796C325.952 219.796 325.255 219.796 324.519 219.796V211.191C325.487 211.114 326.301 211.191 326.843 211.23Z" fill="#36343A"/>
<path d="M244.394 205.416H215.22" stroke="#36343A" stroke-width="4.0148" stroke-miterlimit="10"/>
<path d="M251.02 216.696V149.755" stroke="#36343A" stroke-width="4.0148" stroke-miterlimit="10"/>
<path d="M245.944 216.696V149.755" stroke="#36343A" stroke-width="4.0148" stroke-miterlimit="10"/>
<path d="M244.394 212.78H215.22" stroke="#36343A" stroke-width="4.0148" stroke-miterlimit="10"/>
<path d="M166.634 195.687V154.678C166.634 145.065 174.421 137.312 183.991 137.312H291.469V149.755H216.227C213.98 149.755 212.159 151.577 212.159 153.825V195.648H166.634V195.687Z" fill="#36343A"/>
<path d="M254.507 216.308V234.603C254.507 235.029 254.158 235.378 253.732 235.378H209.912C207.316 235.378 204.875 234.099 203.403 231.928L202.434 230.494C193.6 228.324 183.565 229.835 183.565 229.835L180.853 232.781C179.342 234.409 177.25 235.339 175.003 235.339H166.634V195.687H211.306C215.646 195.687 219.133 199.214 219.133 203.516V227.975C219.133 228.401 219.482 228.75 219.908 228.75H242.845C243.271 228.75 243.62 228.401 243.62 227.975V202.702C243.62 202.276 243.968 201.927 244.394 201.927H247.494C247.92 201.927 248.269 202.276 248.269 202.702V214.757C248.269 215.183 248.618 215.532 249.044 215.532H253.693C254.158 215.494 254.507 215.881 254.507 216.308Z" fill="#FCCD01"/>
<path d="M319.055 195.687C317.041 210.572 308.982 224.991 304.797 231.619C303.325 233.945 300.768 235.379 297.978 235.379H253.306V233.053H289.842C289.842 233.053 298.792 214.37 301.892 194.137C304.991 173.903 291.392 149.794 291.392 149.794V137.352C291.392 137.352 295.266 142.235 300.109 149.406C308.904 162.275 320.799 182.663 319.055 195.687Z" fill="#FCCD01"/>
<path d="M319.056 195.687H312.392C310.532 195.687 309.06 194.136 309.098 192.276C309.331 180.996 299.8 155.336 297.979 150.53C297.824 150.142 298.095 149.677 298.521 149.639L300.187 149.367C308.905 162.275 320.799 182.663 319.056 195.687Z" fill="#36343A"/>
<path d="M214.135 235.34H208.904C206.889 235.34 205.03 234.371 203.906 232.704L203.402 231.967C202.744 230.998 201.698 230.301 200.535 230.068C194.491 228.944 188.253 229.293 185.27 229.603C184.146 229.719 183.139 230.223 182.364 231.037L180.156 233.44C179.071 234.642 177.521 235.34 175.894 235.34H170.663C170.741 232.859 172.058 219.37 191.973 219.68C211.229 219.99 213.786 232.277 214.135 235.34Z" fill="#E8BD07"/>
</g>
</g>
<defs>
<clipPath id="clip0_240_10861">
<rect width="360" height="256" fill="white" transform="translate(0.75)"/>
</clipPath>
<clipPath id="clip1_240_10861">
<rect width="1440" height="256" fill="white" transform="translate(0.75)"/>
</clipPath>
</defs>
</svg>
