<svg width="auto" height="auto" viewBox="0 0 1441 256" fill="none" xmlns="http://www.w3.org/2000/svg">

<path d="M1440.25 0H0.25V256H1440.25V0Z" fill="#546DF5"/>
<path d="M0.25 229.46C20.6486 235.244 44.5469 240.002 83.2442 240.002C184.237 240.002 184.237 208.002 285.33 208.002C386.323 208.002 386.323 240.002 487.316 240.002C588.309 240.002 588.309 208.002 689.402 208.002C790.395 208.002 790.395 240.002 891.488 240.002C992.481 240.002 992.481 208.002 1093.57 208.002C1194.57 208.002 1194.57 240.002 1295.66 240.002C1372.75 240.002 1391.05 221.343 1440.25 212.573" stroke="white" stroke-width="1.0091" stroke-miterlimit="10"/>
<path d="M0.25 37.4577C20.6486 43.242 44.5469 48 83.2442 48C184.237 48 184.237 16 285.33 16C386.323 16 386.323 48 487.316 48C588.309 48 588.309 16 689.402 16C790.395 16 790.395 48 891.488 48C992.481 48 992.481 16 1093.57 16C1194.57 16 1194.57 48 1295.66 48C1372.75 48 1391.05 29.3411 1440.25 20.5714" stroke="white" stroke-width="1.0091" stroke-miterlimit="10"/>
<path d="M0.25 75.8581C20.6486 81.6424 44.5469 86.4004 83.2442 86.4004C184.237 86.4004 184.237 54.4004 285.33 54.4004C386.323 54.4004 386.323 86.4004 487.316 86.4004C588.309 86.4004 588.309 54.4004 689.402 54.4004C790.395 54.4004 790.395 86.4004 891.488 86.4004C992.481 86.4004 992.481 54.4004 1093.57 54.4004C1194.57 54.4004 1194.57 86.4004 1295.66 86.4004C1372.75 86.4004 1391.05 67.7415 1440.25 58.9718" stroke="white" stroke-width="1.0091" stroke-miterlimit="10"/>
<path d="M0.25 114.259C20.6486 120.043 44.5469 124.801 83.2442 124.801C184.237 124.801 184.237 92.8008 285.33 92.8008C386.323 92.8008 386.323 124.801 487.316 124.801C588.309 124.801 588.309 92.8008 689.402 92.8008C790.395 92.8008 790.395 124.801 891.488 124.801C992.481 124.801 992.481 92.8008 1093.57 92.8008C1194.57 92.8008 1194.57 124.801 1295.66 124.801C1372.75 124.801 1391.05 106.142 1440.25 97.3722" stroke="white" stroke-width="1.0091" stroke-miterlimit="10"/>
<path d="M0.25 152.659C20.6486 158.443 44.5469 163.201 83.2442 163.201C184.237 163.201 184.237 131.201 285.33 131.201C386.323 131.201 386.323 163.201 487.316 163.201C588.309 163.201 588.309 131.201 689.402 131.201C790.395 131.201 790.395 163.201 891.488 163.201C992.481 163.201 992.481 131.201 1093.57 131.201C1194.57 131.201 1194.57 163.201 1295.66 163.201C1372.75 163.201 1391.05 144.542 1440.25 135.773" stroke="white" stroke-width="1.0091" stroke-miterlimit="10"/>
<path d="M0.25 191.059C20.6486 196.844 44.5469 201.602 83.2442 201.602C184.237 201.602 184.237 169.602 285.33 169.602C386.323 169.602 386.323 201.602 487.316 201.602C588.309 201.602 588.309 169.602 689.402 169.602C790.395 169.602 790.395 201.602 891.488 201.602C992.481 201.602 992.481 169.602 1093.57 169.602C1194.57 169.602 1194.57 201.602 1295.66 201.602C1372.75 201.602 1391.05 182.943 1440.25 174.173" stroke="white" stroke-width="1.0091" stroke-miterlimit="10"/>

<path d="M1256.56 202.755C1257.86 202.276 1258.96 201.797 1259.78 201.318C1258.75 199.402 1256.91 196.391 1253.62 193.79C1250.54 191.395 1247.26 190.095 1244.39 189.479C1246.3 189.547 1248.49 189.616 1250.89 189.684C1251.09 189.684 1251.37 189.684 1251.57 189.684C1252.94 189.684 1254.1 189.684 1254.99 189.684C1255.2 184.62 1255.47 179.625 1255.67 174.561C1254.72 174.492 1253.28 174.355 1251.57 174.492C1248.97 174.697 1245.82 175.382 1242.68 177.298C1238.85 179.625 1234.06 184.278 1235.15 186.947C1235.56 187.905 1236.73 188.521 1238.64 188.931C1237.75 188.931 1237 189 1236.59 189C1233.1 189.274 1230.09 190.3 1227.56 191.532C1233.72 179.009 1239.94 163.201 1242.06 147.119C1245.14 124.194 1224.14 88.1295 1208.75 65.3413C1200.2 52.6812 1193.36 44.0586 1193.36 44.0586H1003.47C986.505 44.0586 972.825 57.8136 972.825 74.7166V147.05V217.126H980.076H987.668H989.31C989.652 217.126 989.994 217.126 990.336 217.057C989.652 219.453 989.31 222.053 989.31 224.654C989.31 240.598 1002.24 253.532 1018.18 253.532C1034.11 253.532 1047.04 240.598 1047.04 224.654C1047.04 221.985 1046.7 219.453 1046.02 216.989C1046.56 217.057 1047.04 217.126 1047.59 217.126H1049.3H1056.82H1126.05H1126.73H1204.92C1206.08 217.126 1207.31 216.989 1208.41 216.715C1208.07 218.358 1207.86 219.658 1207.72 220.616C1208.2 220.548 1208.82 220.479 1209.43 220.411C1209.23 221.848 1209.09 223.285 1209.09 224.722C1209.09 240.667 1222.02 253.601 1237.96 253.601C1253.9 253.601 1266.82 240.667 1266.82 224.722C1266.69 215.963 1262.72 208.093 1256.56 202.755ZM1195.75 200.634H1127.96V183.457H1160.8C1163.12 183.457 1165.04 181.541 1165.04 179.214V175.313C1165.04 172.987 1163.12 171.07 1160.8 171.07H1117.77C1117.5 171.07 1117.23 171.07 1117.02 171.139V159.368C1117.02 158.616 1116.4 158 1115.65 158H1110.18C1109.43 158 1108.81 158.616 1108.81 159.368V203.987C1108.81 204.74 1108.2 205.355 1107.44 205.355H1066.95C1066.2 205.355 1065.58 204.74 1065.58 203.987V160.805C1065.58 153.141 1059.36 146.982 1051.76 146.982H1053.27V73.2795C1053.27 69.3104 1056.48 66.0941 1060.45 66.0941H1193.29C1193.29 66.0941 1217.3 108.659 1211.83 144.382C1208.34 166.622 1200.88 187.837 1195.75 200.634Z" stroke="black" stroke-width="3" stroke-miterlimit="10"/>
<path d="M1018.11 253.6C1034.05 253.6 1046.97 240.671 1046.97 224.722C1046.97 208.772 1034.05 195.843 1018.11 195.843C1002.17 195.843 989.241 208.772 989.241 224.722C989.241 240.671 1002.17 253.6 1018.11 253.6Z" fill="#36343A"/>
<path d="M1018.11 242.583C1027.97 242.583 1035.96 234.587 1035.96 224.722C1035.96 214.858 1027.97 206.861 1018.11 206.861C1008.25 206.861 1000.25 214.858 1000.25 224.722C1000.25 234.587 1008.25 242.583 1018.11 242.583Z" fill="#4E4C51"/>
<path d="M1237.82 253.6C1253.76 253.6 1266.69 240.671 1266.69 224.722C1266.69 208.772 1253.76 195.843 1237.82 195.843C1221.88 195.843 1208.96 208.772 1208.96 224.722C1208.96 240.671 1221.88 253.6 1237.82 253.6Z" fill="#36343A"/>
<path d="M1237.82 242.583C1247.68 242.583 1255.67 234.587 1255.67 224.722C1255.67 214.858 1247.68 206.861 1237.82 206.861C1227.96 206.861 1219.97 214.858 1219.97 224.722C1219.97 234.587 1227.96 242.583 1237.82 242.583Z" fill="#4E4C51"/>
<path d="M1197.33 200.634H1125.91V215.073H1197.33V200.634Z" fill="#E8BD07"/>
<path d="M1160.8 183.525H1117.77C1115.45 183.525 1113.53 181.609 1113.53 179.282V175.382C1113.53 173.055 1115.45 171.139 1117.77 171.139H1160.8C1163.12 171.139 1165.04 173.055 1165.04 175.382V179.282C1165.04 181.609 1163.19 183.525 1160.8 183.525Z" fill="#36343A"/>
<path d="M1207.59 220.616C1209.02 220.479 1211.28 220.205 1213.74 219.247C1219.9 216.92 1220.65 213.499 1226.12 209.598C1233.31 204.534 1241.52 203.781 1246.03 203.439C1247.53 203.302 1250.48 204.26 1254.24 203.439C1256.63 202.96 1258.48 202.07 1259.71 201.386C1258.68 199.47 1256.84 196.459 1253.55 193.859C1246.58 188.315 1238.57 188.863 1236.39 189.068C1227.49 189.821 1221.81 194.953 1219.22 197.28C1209.98 205.697 1208.07 216.784 1207.59 220.616Z" fill="#E8BD07"/>
<path d="M1255.67 174.561C1255.47 179.625 1255.2 184.62 1254.99 189.684C1254.1 189.684 1252.87 189.684 1251.57 189.684C1251.37 189.684 1251.09 189.684 1250.89 189.684C1241.93 189.479 1236.11 189.342 1235.09 186.947C1233.99 184.347 1238.85 179.625 1242.61 177.298C1245.76 175.382 1248.97 174.697 1251.5 174.492C1253.28 174.355 1254.72 174.492 1255.67 174.561Z" fill="#FCCD01"/>
<path d="M1255.67 174.561C1255.47 179.625 1255.2 184.62 1254.99 189.684C1254.1 189.684 1252.87 189.684 1251.57 189.684V174.492C1253.28 174.355 1254.72 174.492 1255.67 174.561Z" fill="#36343A"/>
<path d="M1110.11 164.296H1058.6" stroke="#36343A" stroke-width="4.0148" stroke-miterlimit="10"/>
<path d="M1121.81 184.209V66.0254" stroke="#36343A" stroke-width="4.0148" stroke-miterlimit="10"/>
<path d="M1112.85 184.209V66.0254" stroke="#36343A" stroke-width="4.0148" stroke-miterlimit="10"/>
<path d="M1110.11 177.298H1058.6" stroke="#36343A" stroke-width="4.0148" stroke-miterlimit="10"/>
<path d="M972.825 147.119V74.7166C972.825 57.7452 986.574 44.0586 1003.47 44.0586H1193.22V66.0256H1060.38C1056.41 66.0256 1053.2 69.242 1053.2 73.2111V147.05H972.825V147.119Z" fill="#36343A"/>
<path d="M1127.96 183.525V215.825C1127.96 216.578 1127.35 217.194 1126.6 217.194H1049.23C1044.65 217.194 1040.34 214.935 1037.74 211.103L1036.03 208.571C1020.43 204.739 1002.72 207.408 1002.72 207.408L997.929 212.609C995.261 215.483 991.567 217.125 987.6 217.125H972.825V147.118H1051.69C1059.36 147.118 1065.51 153.346 1065.51 160.942V204.123C1065.51 204.876 1066.13 205.492 1066.88 205.492H1107.38C1108.13 205.492 1108.74 204.876 1108.74 204.123V159.505C1108.74 158.752 1109.36 158.136 1110.11 158.136H1115.58C1116.34 158.136 1116.95 158.752 1116.95 159.505V180.787C1116.95 181.54 1117.57 182.156 1118.32 182.156H1126.53C1127.35 182.088 1127.96 182.772 1127.96 183.525Z" fill="#FCCD01"/>
<path d="M1241.93 147.119C1238.37 173.397 1224.14 198.854 1216.75 210.556C1214.15 214.662 1209.64 217.194 1204.71 217.194H1125.84V213.088H1190.35C1190.35 213.088 1206.15 180.103 1211.62 144.381C1217.1 108.659 1193.09 66.094 1193.09 66.094V44.127C1193.09 44.127 1199.93 52.7495 1208.48 65.4096C1224 88.1294 1245 124.125 1241.93 147.119Z" fill="#FCCD01"/>
<path d="M1241.93 147.119H1230.16C1226.88 147.119 1224.28 144.382 1224.35 141.097C1224.76 121.183 1207.93 75.8805 1204.71 67.3948C1204.44 66.7105 1204.92 65.8892 1205.67 65.8208L1208.61 65.3418C1224 88.13 1245 124.126 1241.93 147.119Z" fill="#36343A"/>
<path d="M1056.69 217.125H1047.45C1043.9 217.125 1040.61 215.414 1038.63 212.472L1037.74 211.171C1036.58 209.461 1034.73 208.229 1032.68 207.818C1022.01 205.834 1010.99 206.449 1005.73 206.997C1003.74 207.202 1001.96 208.092 1000.6 209.529L996.697 213.772C994.782 215.893 992.046 217.125 989.173 217.125H979.938C980.075 212.745 982.401 188.931 1017.56 189.478C1051.56 190.026 1056.07 211.719 1056.69 217.125Z" fill="#E8BD07"/>
<path d="M896.564 202.755C897.864 202.276 898.958 201.797 899.779 201.318C898.753 199.402 896.906 196.391 893.623 193.79C890.545 191.395 887.261 190.095 884.388 189.479C886.303 189.547 888.492 189.616 890.887 189.684C891.092 189.684 891.365 189.684 891.571 189.684C892.939 189.684 894.102 189.684 894.991 189.684C895.196 184.62 895.47 179.625 895.675 174.561C894.717 174.492 893.281 174.355 891.571 174.492C888.971 174.697 885.825 175.382 882.678 177.298C878.847 179.625 874.059 184.278 875.154 186.947C875.564 187.905 876.727 188.521 878.642 188.931C877.753 188.931 877.001 189 876.59 189C873.102 189.274 870.092 190.3 867.561 191.532C873.717 179.009 879.942 163.201 882.062 147.119C885.141 124.194 864.141 88.1295 848.75 65.3413C840.199 52.6812 833.359 44.0586 833.359 44.0586H643.47C626.505 44.0586 612.825 57.8136 612.825 74.7166V147.05V217.126H620.076H627.668H629.31C629.652 217.126 629.994 217.126 630.336 217.057C629.652 219.453 629.31 222.053 629.31 224.654C629.31 240.598 642.238 253.532 658.176 253.532C674.115 253.532 687.043 240.598 687.043 224.654C687.043 221.985 686.701 219.453 686.017 216.989C686.564 217.057 687.043 217.126 687.59 217.126H689.3H696.825H766.049H766.733H844.919C846.082 217.126 847.313 216.989 848.408 216.715C848.066 218.358 847.861 219.658 847.724 220.616C848.203 220.548 848.818 220.479 849.434 220.411C849.229 221.848 849.092 223.285 849.092 224.722C849.092 240.667 862.02 253.601 877.958 253.601C893.896 253.601 906.825 240.667 906.825 224.722C906.688 215.963 902.72 208.093 896.564 202.755ZM835.753 200.634H767.965V183.457H800.799C803.124 183.457 805.04 181.541 805.04 179.214V175.313C805.04 172.987 803.124 171.07 800.799 171.07H757.773C757.499 171.07 757.225 171.07 757.02 171.139V159.368C757.02 158.616 756.405 158 755.652 158H750.18C749.427 158 748.812 158.616 748.812 159.368V203.987C748.812 204.74 748.196 205.355 747.444 205.355H706.948C706.196 205.355 705.58 204.74 705.58 203.987V160.805C705.58 153.141 699.356 146.982 691.763 146.982H693.268V73.2795C693.268 69.3104 696.483 66.0941 700.45 66.0941H833.291C833.291 66.0941 857.3 108.659 851.828 144.382C848.339 166.622 840.883 187.837 835.753 200.634Z" stroke="black" stroke-width="3" stroke-miterlimit="10"/>
<path d="M658.108 253.6C674.05 253.6 686.974 240.671 686.974 224.722C686.974 208.772 674.05 195.843 658.108 195.843C642.165 195.843 629.241 208.772 629.241 224.722C629.241 240.671 642.165 253.6 658.108 253.6Z" fill="#36343A"/>
<path d="M658.108 242.583C667.968 242.583 675.962 234.587 675.962 224.722C675.962 214.858 667.968 206.861 658.108 206.861C648.248 206.861 640.255 214.858 640.255 224.722C640.255 234.587 648.248 242.583 658.108 242.583Z" fill="#4E4C51"/>
<path d="M877.822 253.6C893.764 253.6 906.688 240.671 906.688 224.722C906.688 208.772 893.764 195.843 877.822 195.843C861.879 195.843 848.955 208.772 848.955 224.722C848.955 240.671 861.879 253.6 877.822 253.6Z" fill="#36343A"/>
<path d="M877.821 242.583C887.681 242.583 895.675 234.587 895.675 224.722C895.675 214.858 887.681 206.861 877.821 206.861C867.961 206.861 859.968 214.858 859.968 224.722C859.968 234.587 867.961 242.583 877.821 242.583Z" fill="#4E4C51"/>
<path d="M837.327 200.634H765.913V215.073H837.327V200.634Z" fill="#E8BD07"/>
<path d="M800.798 183.525H757.772C755.447 183.525 753.531 181.609 753.531 179.282V175.382C753.531 173.055 755.447 171.139 757.772 171.139H800.798C803.124 171.139 805.039 173.055 805.039 175.382V179.282C805.039 181.609 803.193 183.525 800.798 183.525Z" fill="#36343A"/>
<path d="M847.587 220.616C849.023 220.479 851.281 220.205 853.743 219.247C859.9 216.92 860.652 213.499 866.124 209.598C873.307 204.534 881.515 203.781 886.03 203.439C887.535 203.302 890.476 204.26 894.238 203.439C896.633 202.96 898.479 202.07 899.711 201.386C898.685 199.47 896.838 196.459 893.554 193.859C886.577 188.315 878.574 188.863 876.385 189.068C867.493 189.821 861.815 194.953 859.216 197.28C849.981 205.697 848.066 216.784 847.587 220.616Z" fill="#E8BD07"/>
<path d="M895.675 174.561C895.47 179.625 895.196 184.62 894.991 189.684C894.101 189.684 892.87 189.684 891.57 189.684C891.365 189.684 891.092 189.684 890.886 189.684C881.926 189.479 876.111 189.342 875.085 186.947C873.991 184.347 878.847 179.625 882.61 177.298C885.756 175.382 888.971 174.697 891.502 174.492C893.281 174.355 894.717 174.492 895.675 174.561Z" fill="#FCCD01"/>
<path d="M895.675 174.561C895.469 179.625 895.196 184.62 894.991 189.684C894.101 189.684 892.87 189.684 891.57 189.684V174.492C893.28 174.355 894.717 174.492 895.675 174.561Z" fill="#36343A"/>
<path d="M750.112 164.296H698.604" stroke="#36343A" stroke-width="4.0148" stroke-miterlimit="10"/>
<path d="M761.809 184.209V66.0254" stroke="#36343A" stroke-width="4.0148" stroke-miterlimit="10"/>
<path d="M752.848 184.209V66.0254" stroke="#36343A" stroke-width="4.0148" stroke-miterlimit="10"/>
<path d="M750.112 177.298H698.604" stroke="#36343A" stroke-width="4.0148" stroke-miterlimit="10"/>
<path d="M612.825 147.119V74.7166C612.825 57.7452 626.574 44.0586 643.47 44.0586H833.222V66.0256H700.382C696.414 66.0256 693.199 69.242 693.199 73.2111V147.05H612.825V147.119Z" fill="#36343A"/>
<path d="M767.965 183.525V215.825C767.965 216.578 767.349 217.194 766.597 217.194H689.232C684.649 217.194 680.339 214.935 677.74 211.103L676.03 208.571C660.434 204.739 642.717 207.408 642.717 207.408L637.929 212.609C635.261 215.483 631.567 217.125 627.6 217.125H612.825V147.118H691.694C699.356 147.118 705.512 153.346 705.512 160.942V204.123C705.512 204.876 706.128 205.492 706.88 205.492H747.375C748.128 205.492 748.743 204.876 748.743 204.123V159.505C748.743 158.752 749.359 158.136 750.111 158.136H755.584C756.336 158.136 756.952 158.752 756.952 159.505V180.787C756.952 181.54 757.567 182.156 758.32 182.156H766.528C767.349 182.088 767.965 182.772 767.965 183.525Z" fill="#FCCD01"/>
<path d="M881.926 147.119C878.369 173.397 864.141 198.854 856.753 210.556C854.154 214.662 849.639 217.194 844.714 217.194H765.844V213.088H830.349C830.349 213.088 846.15 180.103 851.623 144.381C857.095 108.659 833.085 66.094 833.085 66.094V44.127C833.085 44.127 839.926 52.7495 848.476 65.4096C864.004 88.1294 885.004 124.125 881.926 147.119Z" fill="#FCCD01"/>
<path d="M881.926 147.119H870.16C866.877 147.119 864.277 144.382 864.346 141.097C864.756 121.183 847.929 75.8805 844.714 67.3948C844.44 66.7105 844.919 65.8892 845.672 65.8208L848.613 65.3418C864.004 88.13 885.004 124.126 881.926 147.119Z" fill="#36343A"/>
<path d="M696.688 217.125H687.453C683.896 217.125 680.613 215.414 678.629 212.472L677.74 211.171C676.577 209.461 674.73 208.229 672.678 207.818C662.007 205.834 650.994 206.449 645.727 206.997C643.743 207.202 641.965 208.092 640.596 209.529L636.697 213.772C634.782 215.893 632.046 217.125 629.173 217.125H619.938C620.075 212.745 622.401 188.931 657.561 189.478C691.557 190.026 696.072 211.719 696.688 217.125Z" fill="#E8BD07"/>
</svg>
