<svg width="1441" height="240" viewBox="0 0 1441 240" fill="none" xmlns="http://www.w3.org/2000/svg">
<g clip-path="url(#clip0_240_10001)">
<rect width="1440" height="240" transform="translate(0.25)" fill="#F0F5FB"/>
<path d="M-115.748 72C-88.6 72 -88.6023 85.8211 -61.3875 85.8211C-34.2399 85.8211 -34.2376 72 -7.02283 72C20.1247 72 20.1225 85.8211 47.3372 85.8211C74.552 85.8211 74.5543 72 101.702 72C128.849 72 128.914 85.8211 156.062 85.8211" stroke="#DCE7F7" stroke-width="2" stroke-miterlimit="10"/>
<path d="M-115.748 97.8213C-88.6 97.8213 -88.6023 111.642 -61.3875 111.642C-34.2399 111.642 -34.2376 97.8213 -7.02283 97.8213C20.1247 97.8213 20.1225 111.642 47.3372 111.642C74.552 111.642 74.5543 97.8213 101.702 97.8213C128.849 97.8213 128.914 111.642 156.062 111.642" stroke="#DCE7F7" stroke-width="2" stroke-miterlimit="10"/>
<path d="M-115.748 123.643C-88.6 123.643 -88.6023 137.464 -61.3875 137.464C-34.2399 137.464 -34.2376 123.643 -7.02283 123.643C20.1247 123.643 20.1225 137.464 47.3372 137.464C74.552 137.464 74.5543 123.643 101.702 123.643C128.849 123.643 128.914 137.464 156.062 137.464" stroke="#DCE7F7" stroke-width="2" stroke-miterlimit="10"/>
<path d="M-115.748 149.463C-88.6 149.463 -88.6023 163.284 -61.3875 163.284C-34.2399 163.284 -34.2376 149.463 -7.02283 149.463C20.1247 149.463 20.1225 163.284 47.3372 163.284C74.552 163.284 74.5543 149.463 101.702 149.463C128.849 149.463 128.914 163.284 156.062 163.284" stroke="#DCE7F7" stroke-width="2" stroke-miterlimit="10"/>
<path d="M-115.748 175.284C-88.6 175.284 -88.6023 189.105 -61.3875 189.105C-34.2399 189.105 -34.2376 175.284 -7.02283 175.284C20.1247 175.284 20.1225 189.105 47.3372 189.105C74.552 189.105 74.5543 175.284 101.702 175.284C128.849 175.284 128.914 189.105 156.062 189.105" stroke="#DCE7F7" stroke-width="2" stroke-miterlimit="10"/>
<path d="M-115.748 201.105C-88.6 201.105 -88.6023 214.927 -61.3875 214.927C-34.2399 214.927 -34.2376 201.105 -7.02283 201.105C20.1247 201.105 20.1225 214.927 47.3372 214.927C74.552 214.927 74.5543 201.105 101.702 201.105C128.849 201.105 128.914 214.927 156.062 214.927" stroke="#DCE7F7" stroke-width="2" stroke-miterlimit="10"/>
<path d="M-115.748 226.927C-88.6 226.927 -88.6023 240.748 -61.3875 240.748C-34.2399 240.748 -34.2376 226.927 -7.02283 226.927C20.1247 226.927 20.1225 240.748 47.3372 240.748C74.552 240.748 74.5543 226.927 101.702 226.927C128.849 226.927 128.914 240.748 156.062 240.748" stroke="#DCE7F7" stroke-width="2" stroke-miterlimit="10"/>
<path d="M1284.25 9.21094C1311.4 9.21094 1311.4 23.032 1338.61 23.032C1365.76 23.032 1365.76 9.21094 1392.98 9.21094C1420.12 9.21094 1420.12 23.032 1447.34 23.032C1474.55 23.032 1474.55 9.21094 1501.7 9.21094C1528.85 9.21094 1528.91 23.032 1556.06 23.032" stroke="#DCE7F7" stroke-width="2" stroke-miterlimit="10"/>
<path d="M1284.25 35.0322C1311.4 35.0322 1311.4 48.8533 1338.61 48.8533C1365.76 48.8533 1365.76 35.0322 1392.98 35.0322C1420.12 35.0322 1420.12 48.8533 1447.34 48.8533C1474.55 48.8533 1474.55 35.0322 1501.7 35.0322C1528.85 35.0322 1528.91 48.8533 1556.06 48.8533" stroke="#DCE7F7" stroke-width="2" stroke-miterlimit="10"/>
<path d="M1284.25 60.8535C1311.4 60.8535 1311.4 74.6746 1338.61 74.6746C1365.76 74.6746 1365.76 60.8535 1392.98 60.8535C1420.12 60.8535 1420.12 74.6746 1447.34 74.6746C1474.55 74.6746 1474.55 60.8535 1501.7 60.8535C1528.85 60.8535 1528.91 74.6746 1556.06 74.6746" stroke="#DCE7F7" stroke-width="2" stroke-miterlimit="10"/>
<path d="M1284.25 86.6748C1311.4 86.6748 1311.4 100.496 1338.61 100.496C1365.76 100.496 1365.76 86.6748 1392.98 86.6748C1420.12 86.6748 1420.12 100.496 1447.34 100.496C1474.55 100.496 1474.55 86.6748 1501.7 86.6748C1528.85 86.6748 1528.91 100.496 1556.06 100.496" stroke="#DCE7F7" stroke-width="2" stroke-miterlimit="10"/>
<path d="M1284.25 112.495C1311.4 112.495 1311.4 126.316 1338.61 126.316C1365.76 126.316 1365.76 112.495 1392.98 112.495C1420.12 112.495 1420.12 126.316 1447.34 126.316C1474.55 126.316 1474.55 112.495 1501.7 112.495C1528.85 112.495 1528.91 126.316 1556.06 126.316" stroke="#DCE7F7" stroke-width="2" stroke-miterlimit="10"/>
<path d="M1284.25 138.316C1311.4 138.316 1311.4 152.138 1338.61 152.138C1365.76 152.138 1365.76 138.316 1392.98 138.316C1420.12 138.316 1420.12 152.138 1447.34 152.138C1474.55 152.138 1474.55 138.316 1501.7 138.316C1528.85 138.316 1528.91 152.138 1556.06 152.138" stroke="#DCE7F7" stroke-width="2" stroke-miterlimit="10"/>
</g>
<defs>
<clipPath id="clip0_240_10001">
<rect width="1440" height="240" fill="white" transform="translate(0.25)"/>
</clipPath>
</defs>
</svg>
